<?xml version="1.0" standalone="no"?>
<!DOCTYPE svg PUBLIC "-//W3C//DTD SVG 20010904//EN"
 "http://www.w3.org/TR/2001/REC-SVG-20010904/DTD/svg10.dtd">
<svg version="1.0" xmlns="http://www.w3.org/2000/svg"
 width="695.000000pt" height="695.000000pt" viewBox="0 0 695.000000 695.000000"
 preserveAspectRatio="xMidYMid meet">
<metadata>
Created by potrace 1.14, written by Peter Selinger 2001-2017
</metadata>
<g transform="translate(0.000000,695.000000) scale(0.100000,-0.100000)"
fill="#000000" stroke="none">
<path d="M3457 6944 c-1 -1 -49 -4 -107 -8 -58 -3 -116 -8 -130 -10 -14 -2
-50 -7 -80 -11 -30 -4 -62 -8 -70 -10 -8 -2 -35 -6 -60 -9 -25 -4 -53 -9 -62
-12 -9 -3 -25 -7 -35 -9 -129 -27 -296 -77 -418 -125 -88 -35 -205 -87 -225
-100 -8 -6 -26 -15 -39 -20 -50 -22 -210 -121 -311 -193 -700 -500 -1166
-1261 -1360 -2222 -16 -77 -31 -158 -34 -180 -3 -22 -8 -51 -11 -65 -2 -14 -7
-46 -10 -72 -3 -27 -7 -67 -10 -90 -27 -212 -36 -576 -22 -853 7 -136 9 -157
22 -275 7 -60 32 -230 40 -270 3 -14 8 -41 11 -60 14 -74 67 -279 96 -370 80
-247 204 -512 336 -714 46 -70 176 -251 196 -272 6 -6 34 -39 61 -73 49 -60
252 -263 311 -310 167 -135 337 -244 506 -325 96 -46 281 -123 313 -131 6 -1
17 -5 25 -8 26 -11 184 -56 210 -61 14 -2 43 -9 65 -14 44 -12 70 -17 165 -32
36 -6 75 -13 86 -15 69 -11 223 -19 389 -20 178 0 400 10 415 20 3 2 31 7 61
10 29 4 76 11 104 16 27 6 59 12 70 14 101 16 320 82 470 142 256 104 492 241
700 408 175 141 438 418 560 589 11 16 30 40 41 55 32 40 155 225 220 331 61
100 234 437 273 530 170 406 262 684 263 792 1 139 -92 242 -212 233 -138 -11
-187 -60 -249 -252 -70 -214 -198 -550 -241 -631 -4 -9 -34 -71 -66 -137 -191
-399 -454 -754 -729 -986 -22 -19 -46 -40 -53 -47 -34 -31 -246 -165 -328
-206 -130 -65 -291 -124 -384 -142 -14 -3 -41 -9 -60 -14 -19 -5 -53 -12 -75
-14 -22 -3 -51 -8 -65 -11 -40 -8 -188 -18 -280 -19 -526 -2 -1000 207 -1395
615 -262 271 -448 587 -563 959 -22 70 -52 176 -57 200 -22 105 -35 171 -40
200 -3 19 -7 46 -10 60 -2 14 -7 45 -10 70 -4 25 -8 56 -10 70 -4 29 -15 158
-21 245 -5 79 -5 520 0 565 3 19 7 71 11 115 6 90 15 181 20 204 1 9 6 41 10
71 15 118 41 269 65 380 10 47 21 96 24 110 5 28 30 120 51 195 8 28 15 53 15
57 1 4 21 63 44 131 127 358 285 659 492 933 334 443 718 650 1183 638 241 -7
432 -80 564 -217 125 -130 217 -326 252 -539 13 -83 13 -317 0 -388 -3 -19
-15 -87 -26 -150 -32 -190 -33 -198 -78 -363 -24 -90 -29 -125 -27 -210 1 -84
5 -109 23 -143 64 -120 239 -183 501 -179 152 2 218 16 319 66 190 96 318 295
374 584 11 55 22 125 25 155 3 30 8 69 10 85 5 42 5 305 0 332 -2 11 -8 43
-11 70 -40 282 -199 578 -430 798 -42 41 -117 107 -151 135 -31 25 -185 126
-234 152 -168 92 -443 187 -615 213 -22 3 -67 10 -100 15 -97 15 -475 34 -488
24z"/>
</g>
</svg>
